<?xml version="1.0" encoding="UTF-8" standalone="no"?> <svg id="Layer_1" data-name="Layer 1" xmlns="http://www.w3.org/2000/svg" viewBox="0 0 128 128"><defs><style>.cls-1{fill:#2d3e50;}</style></defs><title>x</title><path class="cls-1" d="M40.406,53.97167V38.96911a25.02857,25.02857,0,0,1,5.98079-16.253,23.39246,23.39246,0,0,1,15.21147-8.14172,23.9306,23.9306,0,0,1,25.697,17.09842,6.72452,6.72452,0,0,0,5.92141,4.43252,6.1399,6.1399,0,0,0,4.961-2.48178,6.24843,6.24843,0,0,0,.98915-5.5575A36.33441,36.33441,0,0,0,63.277,2.05313c-19.44976.55994-35.27239,17.23829-35.27239,37.1788V53.99788H24.85174A7.94378,7.94378,0,0,0,16.917,61.93263v64.02988h86.23128a7.94378,7.94378,0,0,0,7.93475-7.93475V53.97167Zm30.09108,48.93177a.38463.38463,0,0,1-.08109.32348.36874.36874,0,0,1-.2918.13823H57.79367a.36074.36074,0,0,1-.29188-.13583.384.384,0,0,1-.08237-.31988l2.55209-12.57484-.76174-.65025a7.48766,7.48766,0,0,1-2.54221-6.9179,7.40059,7.40059,0,0,1,6.42759-6.14335,7.81557,7.81557,0,0,1,.91569-.05421,7.33633,7.33633,0,0,1,4.91886,1.87422,7.42921,7.42921,0,0,1-.22366,11.30445l-.79611.652Z"/></svg>