<?xml version="1.0" encoding="UTF-8"?>
<svg id="Layer_1" data-name="Layer 1" xmlns="http://www.w3.org/2000/svg" viewBox="0 0 48 48">
  <path
    d="M32.916,43.991c-5.147,0-12.329-2.76-19.238-9.669C4.828,25.472,2.785,16.172,4.632,11.277c1.321-3.5,5.005-4.644,7.083-5.014,1.317-.232,2.646,.44,3.229,1.642l3.227,6.632c.579,1.19,.3,2.643-.68,3.533l-2.744,2.493c.109,.886,.79,3.623,4.929,7.761,4.123,4.124,6.855,4.814,7.764,4.927l2.49-2.741c.89-.979,2.345-1.259,3.533-.681l6.632,3.227c1.202,.584,1.877,1.913,1.642,3.229-.37,2.078-1.514,5.762-5.013,7.083-1.074,.405-2.36,.624-3.808,.624Z" />
  <path
    d="M42.999,21.41c-.478,0-.899-.342-.984-.828-1.297-7.434-7.163-13.3-14.597-14.597-.544-.095-.908-.613-.813-1.157s.605-.908,1.157-.813c8.262,1.442,14.781,7.962,16.224,16.224,.095,.544-.27,1.062-.813,1.157-.058,.01-.116,.015-.173,.015Z" />
  <path
    d="M36.799,22.74c-.477,0-.899-.342-.984-.828-.866-4.952-4.775-8.861-9.728-9.728-.544-.095-.907-.613-.812-1.157,.095-.543,.607-.912,1.158-.812,5.779,1.011,10.341,5.574,11.353,11.353,.095,.544-.269,1.062-.813,1.157-.058,.01-.116,.015-.173,.015Z" />
</svg>